<svg xmlns="http://www.w3.org/2000/svg" viewBox="0 0 284.95 62.17"><defs><style>.cls-1{fill:#29abe2;}</style></defs><title>logo azul</title><g id="Capa_2" data-name="Capa 2"><g id="Capa_1-2" data-name="Capa 1"><path class="cls-1" d="M44,23.52a1.46,1.46,0,0,0-.25-2,1.43,1.43,0,0,0-1.83,0l-26,22.12L2.15,38.33a3.33,3.33,0,0,1-.39-6.06L58.76.34a2.82,2.82,0,0,1,4.13,2.74l-5,52.12a3.45,3.45,0,0,1-3.76,3.11,3.54,3.54,0,0,1-1-.23L36.46,51.61,26,61.44a2.71,2.71,0,0,1-3.83-.13,2.67,2.67,0,0,1-.73-1.87V51.72Z"/><path class="cls-1" d="M99.79,46.71a10.74,10.74,0,0,1-1.71,6,11.34,11.34,0,0,1-5,4.15,18.79,18.79,0,0,1-7.83,1.5,17.53,17.53,0,0,1-8.94-2,11.87,11.87,0,0,1-4.07-3.93,9,9,0,0,1-1.56-4.79A3.26,3.26,0,0,1,74,44.28,2.81,2.81,0,0,1,76,45a5.93,5.93,0,0,1,1.39,2.23,14.9,14.9,0,0,0,1.51,2.92,6.11,6.11,0,0,0,2.29,1.94,8.4,8.4,0,0,0,3.87.76,8.81,8.81,0,0,0,5.37-1.53,4.65,4.65,0,0,0,2.06-3.84,4.05,4.05,0,0,0-1.11-3,7.2,7.2,0,0,0-2.88-1.74,48.47,48.47,0,0,0-4.71-1.28,33.72,33.72,0,0,1-6.61-2.16A10.65,10.65,0,0,1,72.93,36a8.79,8.79,0,0,1-1.56-5.31A9.14,9.14,0,0,1,73,25.31a10.37,10.37,0,0,1,4.77-3.61,19.64,19.64,0,0,1,7.35-1.26,18.44,18.44,0,0,1,5.84.83,12.38,12.38,0,0,1,4.09,2.23,9.22,9.22,0,0,1,2.37,2.91,6.74,6.74,0,0,1,.75,3,3.5,3.5,0,0,1-.93,2.38,3,3,0,0,1-2.34,1.07A2.72,2.72,0,0,1,93,32.2a8.79,8.79,0,0,1-1.44-2.09,9.39,9.39,0,0,0-2.4-3.24,7,7,0,0,0-4.5-1.16A7.78,7.78,0,0,0,80,27a3.69,3.69,0,0,0-1.77,3,3.08,3.08,0,0,0,.6,1.9,5.19,5.19,0,0,0,1.65,1.38,11.51,11.51,0,0,0,2.13.9c.72.21,1.9.53,3.55,1a52.57,52.57,0,0,1,5.61,1.6,17.09,17.09,0,0,1,4.28,2.12A8.81,8.81,0,0,1,98.81,42,10.26,10.26,0,0,1,99.79,46.71Z"/><path class="cls-1" d="M124.67,46.13H111.32a9.07,9.07,0,0,0,.93,4.1A6.28,6.28,0,0,0,118,53.81a8.19,8.19,0,0,0,2.23-.29,7.25,7.25,0,0,0,2-.9A15.64,15.64,0,0,0,124,51.31c.53-.47,1.22-1.1,2.07-1.9a2.24,2.24,0,0,1,1.5-.45,2.48,2.48,0,0,1,1.7.57,2.09,2.09,0,0,1,.65,1.63,4.35,4.35,0,0,1-.73,2.16A8.54,8.54,0,0,1,127,55.7a12.69,12.69,0,0,1-3.68,1.88,15.79,15.79,0,0,1-5.08.75q-6.59,0-10.23-3.75t-3.65-10.17a16.92,16.92,0,0,1,.9-5.61,12.32,12.32,0,0,1,2.63-4.44,11.39,11.39,0,0,1,4.25-2.84,15.42,15.42,0,0,1,5.6-1,13.34,13.34,0,0,1,6.86,1.68,11.08,11.08,0,0,1,4.28,4.37A11.46,11.46,0,0,1,130.29,42c0,1.72-.49,2.83-1.48,3.34A9.13,9.13,0,0,1,124.67,46.13Zm-13.35-3.87h12.37A8.34,8.34,0,0,0,121.8,37a5.64,5.64,0,0,0-4.31-1.73,5.46,5.46,0,0,0-4.19,1.76A8.73,8.73,0,0,0,111.32,42.26Z"/><path class="cls-1" d="M142.24,34.36v.83a11.82,11.82,0,0,1,3.94-3.49,10.48,10.48,0,0,1,4.91-1.11,9.8,9.8,0,0,1,4.82,1.17,7.42,7.42,0,0,1,3.18,3.33,7.78,7.78,0,0,1,.87,2.7,26.75,26.75,0,0,1,.2,3.69v12.7a4.49,4.49,0,0,1-.94,3.1,3.09,3.09,0,0,1-2.43,1,3.18,3.18,0,0,1-2.48-1.07,4.52,4.52,0,0,1-.95-3.08V42.81a11.28,11.28,0,0,0-.94-5.16c-.62-1.19-1.87-1.79-3.73-1.79A5.51,5.51,0,0,0,145.36,37a6.24,6.24,0,0,0-2.2,3,21.42,21.42,0,0,0-.5,5.69v8.55a4.47,4.47,0,0,1-1,3.12,3.24,3.24,0,0,1-2.49,1,3.1,3.1,0,0,1-2.42-1.07,4.52,4.52,0,0,1-.95-3.08V34.46a4.27,4.27,0,0,1,.85-2.91,2.94,2.94,0,0,1,2.32-1,3.19,3.19,0,0,1,1.63.42,3,3,0,0,1,1.16,1.28A4.46,4.46,0,0,1,142.24,34.36Z"/><path class="cls-1" d="M185.66,54.43v-.67A17.61,17.61,0,0,1,183,56.32a10.13,10.13,0,0,1-2.9,1.5,10.93,10.93,0,0,1-3.41.51,10.05,10.05,0,0,1-4.54-1,10.58,10.58,0,0,1-3.61-3,13.53,13.53,0,0,1-2.32-4.52,19.5,19.5,0,0,1-.78-5.63q0-6.39,3.12-10a10.41,10.41,0,0,1,8.23-3.57,11,11,0,0,1,5,1,13.73,13.73,0,0,1,3.95,3.11V24.69a5.11,5.11,0,0,1,.84-3.18,2.84,2.84,0,0,1,2.38-1.07,3,3,0,0,1,2.39,1,4.4,4.4,0,0,1,.84,2.92V54.43a4.19,4.19,0,0,1-.9,2.93,3,3,0,0,1-2.33,1,3,3,0,0,1-2.31-1A4.16,4.16,0,0,1,185.66,54.43Zm-13.42-10a11.54,11.54,0,0,0,.86,4.72,6.56,6.56,0,0,0,2.36,2.94,5.82,5.82,0,0,0,3.27,1,6,6,0,0,0,3.29-.94,6.42,6.42,0,0,0,2.38-2.87,11.67,11.67,0,0,0,.88-4.84,11.35,11.35,0,0,0-.88-4.69,7,7,0,0,0-2.4-3,5.76,5.76,0,0,0-3.32-1,5.54,5.54,0,0,0-3.34,1.06,6.75,6.75,0,0,0-2.29,3A12.13,12.13,0,0,0,172.24,44.41Z"/><path class="cls-1" d="M203.48,58.33a3.87,3.87,0,0,1-2.67-1,3.54,3.54,0,0,1-1.13-2.8,3.61,3.61,0,0,1,1.08-2.62,3.56,3.56,0,0,1,2.65-1.1,3.67,3.67,0,0,1,2.68,1.09,3.51,3.51,0,0,1,1.12,2.63,3.55,3.55,0,0,1-1.12,2.79A3.72,3.72,0,0,1,203.48,58.33Z"/><path class="cls-1" d="M237.68,45V54a4.67,4.67,0,0,1-1,3.23,3.31,3.31,0,0,1-2.57,1.07,3.23,3.23,0,0,1-2.51-1.07,4.72,4.72,0,0,1-1-3.23V43.16a34.33,34.33,0,0,0-.17-4,4.35,4.35,0,0,0-.95-2.34,3,3,0,0,0-2.45-.91q-3.35,0-4.41,2.3a16.18,16.18,0,0,0-1.06,6.6V54a4.75,4.75,0,0,1-1,3.22,3.22,3.22,0,0,1-2.53,1.08,3.28,3.28,0,0,1-2.54-1.08,4.65,4.65,0,0,1-1-3.22V34.51a4.27,4.27,0,0,1,.89-2.92,3,3,0,0,1,2.34-1,3.17,3.17,0,0,1,2.33.93,3.49,3.49,0,0,1,.94,2.59v.65a11.69,11.69,0,0,1,3.8-3.12,10,10,0,0,1,4.5-1,9,9,0,0,1,4.42,1,8,8,0,0,1,3,3.1,11.86,11.86,0,0,1,3.7-3.11,9.42,9.42,0,0,1,4.38-1,9.89,9.89,0,0,1,4.82,1.1,7,7,0,0,1,3,3.15,14.47,14.47,0,0,1,.87,5.82V54a4.67,4.67,0,0,1-1,3.23,3.33,3.33,0,0,1-2.58,1.07,3.26,3.26,0,0,1-2.53-1.08,4.65,4.65,0,0,1-1-3.22V42.56a25.27,25.27,0,0,0-.19-3.52,4,4,0,0,0-1-2.23,3.22,3.22,0,0,0-2.5-.9,4.58,4.58,0,0,0-2.56.8,5.4,5.4,0,0,0-1.89,2.15A17.07,17.07,0,0,0,237.68,45Z"/><path class="cls-1" d="M279.32,46.13H266a9.07,9.07,0,0,0,.93,4.1,6.28,6.28,0,0,0,5.77,3.58,8.19,8.19,0,0,0,2.23-.29,7.25,7.25,0,0,0,2-.9,14.65,14.65,0,0,0,1.74-1.31c.54-.47,1.23-1.1,2.08-1.9a2.24,2.24,0,0,1,1.5-.45,2.48,2.48,0,0,1,1.7.57,2.09,2.09,0,0,1,.65,1.63,4.35,4.35,0,0,1-.73,2.16,8.54,8.54,0,0,1-2.18,2.38A12.69,12.69,0,0,1,278,57.58a15.79,15.79,0,0,1-5.08.75q-6.58,0-10.23-3.75T259,44.41a16.92,16.92,0,0,1,.9-5.61,12.32,12.32,0,0,1,2.63-4.44,11.39,11.39,0,0,1,4.25-2.84,15.42,15.42,0,0,1,5.6-1,13.34,13.34,0,0,1,6.86,1.68,11.08,11.08,0,0,1,4.28,4.37A11.46,11.46,0,0,1,285,42c0,1.72-.49,2.83-1.48,3.34A9.14,9.14,0,0,1,279.32,46.13ZM266,42.26h12.37A8.34,8.34,0,0,0,276.46,37a5.64,5.64,0,0,0-4.31-1.73A5.46,5.46,0,0,0,268,37.05,8.73,8.73,0,0,0,266,42.26Z"/></g></g></svg>