<?xml version="1.0" encoding="utf-8"?>
<!-- Generator: Adobe Illustrator 22.0.1, SVG Export Plug-In . SVG Version: 6.00 Build 0)  -->
<svg version="1.1" id="Capa_1" xmlns="http://www.w3.org/2000/svg" xmlns:xlink="http://www.w3.org/1999/xlink" x="0px" y="0px"
	 viewBox="0 0 128 160" style="enable-background:new 0 0 128 160;" xml:space="preserve">
<style type="text/css">
	.st0{fill:#666666;}
	.st1{fill:#FFFFFF;}
</style>
<g>
	<path class="st0" d="M9.8,103.2c-0.4,0-0.7,0.3-0.7,0.7v12.2c0,0.4,0.3,0.7,0.7,0.7s0.7-0.3,0.7-0.7v-12.2
		C10.5,103.5,10.2,103.2,9.8,103.2z"/>
	<path class="st0" d="M9.8,119.4c-0.4,0-0.7,0.3-0.7,0.7v4c0,0.4,0.3,0.7,0.7,0.7s0.7-0.3,0.7-0.7v-4
		C10.5,119.7,10.2,119.4,9.8,119.4z"/>
	<path class="st0" d="M124.4,76c0.4,0,0.7-0.3,0.7-0.7V63c0-0.4-0.3-0.7-0.7-0.7c-0.4,0-0.7,0.3-0.7,0.7v12.2
		C123.7,75.7,124,76,124.4,76z"/>
	<path class="st0" d="M124.4,84c0.4,0,0.7-0.3,0.7-0.7v-4c0-0.4-0.3-0.7-0.7-0.7c-0.4,0-0.7,0.3-0.7,0.7v4
		C123.7,83.6,124,84,124.4,84z"/>
	<path class="st0" d="M112.3,45.9c0.1,0.1,0.3,0.2,0.5,0.2s0.4-0.1,0.5-0.2c0.3-0.3,0.3-0.8,0-1l-1.7-1.7c-0.3-0.3-0.8-0.3-1,0
		c-0.3,0.3-0.3,0.8,0,1L112.3,45.9z"/>
	<path class="st0" d="M117.7,51.3c0.1,0.1,0.3,0.2,0.5,0.2s0.4-0.1,0.5-0.2c0.3-0.3,0.3-0.8,0-1l-1.7-1.7c-0.3-0.3-0.8-0.3-1,0
		c-0.3,0.3-0.3,0.8,0,1L117.7,51.3z"/>
	<path class="st0" d="M111.2,51.5c0.2,0,0.4-0.1,0.5-0.2l1.7-1.7c0.3-0.3,0.3-0.8,0-1c-0.3-0.2-0.8-0.3-1,0l-1.7,1.7
		c-0.3,0.3-0.3,0.8,0,1C110.8,51.4,111,51.5,111.2,51.5z"/>
	<path class="st0" d="M116.6,46.1c0.2,0,0.4-0.1,0.5-0.2l1.7-1.7c0.3-0.3,0.3-0.8,0-1c-0.3-0.3-0.8-0.3-1,0l-1.7,1.7
		c-0.3,0.3-0.3,0.8,0,1C116.2,46.1,116.4,46.1,116.6,46.1z"/>
	<path class="st0" d="M78.4,149.4c-0.3-0.3-0.8-0.3-1,0s-0.3,0.8,0,1l1.7,1.7c0.1,0.1,0.3,0.2,0.5,0.2s0.4-0.1,0.5-0.2
		c0.3-0.3,0.3-0.8,0-1L78.4,149.4z"/>
	<path class="st0" d="M83.8,154.7c-0.3-0.3-0.8-0.3-1,0c-0.3,0.3-0.3,0.8,0,1l1.7,1.7c0.1,0.1,0.3,0.2,0.5,0.2s0.4-0.1,0.5-0.2
		c0.3-0.3,0.3-0.8,0-1L83.8,154.7z"/>
	<path class="st0" d="M79,154.7l-1.7,1.7c-0.3,0.3-0.3,0.8,0,1c0.1,0.1,0.3,0.2,0.5,0.2s0.4-0.1,0.5-0.2l1.7-1.7
		c0.3-0.3,0.3-0.8,0-1C79.8,154.4,79.3,154.4,79,154.7z"/>
	<path class="st0" d="M84.4,149.4l-1.7,1.7c-0.3,0.3-0.3,0.8,0,1c0.1,0.1,0.3,0.2,0.5,0.2s0.4-0.1,0.5-0.2l1.7-1.7
		c0.3-0.3,0.3-0.8,0-1S84.7,149.1,84.4,149.4z"/>
	<path class="st0" d="M1.8,142.2c-0.3-0.3-0.8-0.3-1,0c-0.3,0.3-0.3,0.8,0,1l1.7,1.7c0.1,0.1,0.3,0.2,0.5,0.2s0.4-0.1,0.5-0.2
		c0.3-0.3,0.3-0.8,0-1L1.8,142.2z"/>
	<path class="st0" d="M7.1,147.6c-0.3-0.3-0.8-0.3-1,0s-0.3,0.8,0,1l1.7,1.7c0.1,0.1,0.3,0.2,0.5,0.2s0.4-0.1,0.5-0.2
		c0.3-0.3,0.3-0.8,0-1L7.1,147.6z"/>
	<path class="st0" d="M2.4,147.6l-1.7,1.7c-0.3,0.3-0.3,0.8,0,1c0.1,0.1,0.3,0.2,0.5,0.2s0.4-0.1,0.5-0.2l1.7-1.7
		c0.3-0.3,0.3-0.8,0-1C3.1,147.3,2.7,147.3,2.4,147.6z"/>
	<path class="st0" d="M7.7,142.2L6,143.9c-0.3,0.3-0.3,0.8,0,1c0.1,0.1,0.3,0.2,0.5,0.2s0.4-0.1,0.5-0.2l1.7-1.7
		c0.3-0.3,0.3-0.8,0-1C8.5,141.9,8,141.9,7.7,142.2z"/>
	<path class="st0" d="M74.7,44.5c2.1,0,3.9-1.7,3.9-3.9c0-2.1-1.7-3.9-3.9-3.9s-3.9,1.7-3.9,3.9C70.9,42.8,72.6,44.5,74.7,44.5z
		 M74.7,38.2c1.3,0,2.4,1.1,2.4,2.4S76,43,74.7,43s-2.4-1.1-2.4-2.4C72.3,39.3,73.4,38.2,74.7,38.2z"/>
	<path class="st0" d="M113.4,122.8c0,2.1,1.7,3.9,3.9,3.9c2.1,0,3.9-1.7,3.9-3.9s-1.7-3.9-3.9-3.9
		C115.2,119,113.4,120.7,113.4,122.8z M119.7,122.8c0,1.3-1.1,2.4-2.4,2.4s-2.4-1.1-2.4-2.4s1.1-2.4,2.4-2.4
		S119.7,121.5,119.7,122.8z"/>
	<path class="st0" d="M31.8,141.1c-2.1,0-3.9,1.7-3.9,3.9c0,2.1,1.7,3.9,3.9,3.9c2.1,0,3.9-1.7,3.9-3.9
		C35.7,142.8,34,141.1,31.8,141.1z M31.8,147.3c-1.3,0-2.4-1.1-2.4-2.4s1.1-2.4,2.4-2.4s2.4,1.1,2.4,2.4
		C34.2,146.3,33.2,147.3,31.8,147.3z"/>
	<path class="st0" d="M14.2,43h14.5c0.4,0,0.7-0.3,0.7-0.7c0-0.4-0.3-0.7-0.7-0.7H14.2c-0.4,0-0.7,0.3-0.7,0.7
		C13.5,42.7,13.8,43,14.2,43z"/>
	<path class="st0" d="M4.7,43h4.7c0.4,0,0.7-0.3,0.7-0.7c0-0.4-0.3-0.7-0.7-0.7H4.7C4.3,41.5,4,41.9,4,42.3S4.3,43,4.7,43z"/>
	<path class="st0" d="M15.6,47.3c0-0.4-0.3-0.7-0.7-0.7H4.7c-0.4,0-0.7,0.3-0.7,0.7C4,47.7,4.3,48,4.7,48h10.1
		C15.3,48,15.6,47.7,15.6,47.3z"/>
	<path class="st0" d="M19.2,46.5c-0.4,0-0.7,0.3-0.7,0.7c0,0.4,0.3,0.7,0.7,0.7h3.3c0.4,0,0.7-0.3,0.7-0.7c0-0.4-0.3-0.7-0.7-0.7
		H19.2z"/>
	<path class="st0" d="M117.3,148h-14.5c-0.4,0-0.7,0.3-0.7,0.7c0,0.4,0.3,0.7,0.7,0.7h14.5c0.4,0,0.7-0.3,0.7-0.7
		S117.7,148,117.3,148z"/>
	<path class="st0" d="M126.8,148h-4.7c-0.4,0-0.7,0.3-0.7,0.7c0,0.4,0.3,0.7,0.7,0.7h4.7c0.4,0,0.7-0.3,0.7-0.7S127.2,148,126.8,148
		z"/>
	<path class="st0" d="M115.9,143.8c0,0.4,0.3,0.7,0.7,0.7h10.1c0.4,0,0.7-0.3,0.7-0.7c0-0.4-0.3-0.7-0.7-0.7h-10.1
		C116.2,143,115.9,143.4,115.9,143.8z"/>
	<path class="st0" d="M109,143c-0.4,0-0.7,0.3-0.7,0.7c0,0.4,0.3,0.7,0.7,0.7h3.3c0.4,0,0.7-0.3,0.7-0.7s-0.3-0.7-0.7-0.7H109z"/>
	<path class="st0" d="M117.6,89.6c0.2-0.1,0.4-0.4,0.4-0.6c0-0.3-0.1-0.5-0.4-0.6l-9-5.2l9-5.2c0.2-0.1,0.4-0.4,0.4-0.6
		c0-0.3-0.1-0.5-0.4-0.6l-43.2-25c-0.2-0.1-0.5-0.1-0.7,0l-9.5,5.5l-9.5-5.5c-0.2-0.1-0.5-0.1-0.7,0l-43.2,25
		c-0.2,0.1-0.4,0.4-0.4,0.6c0,0.3,0.1,0.5,0.4,0.6l9,5.2l-9,5.2c-0.2,0.1-0.4,0.4-0.4,0.6c0,0.3,0.1,0.5,0.4,0.6l17.3,10v26.2
		c0,0.3,0.1,0.5,0.4,0.6l35.4,20.5l0,0c0.1,0.1,0.2,0.1,0.3,0.1s0.2,0,0.3-0.1l0,0l35.4-20.5c0.2-0.1,0.4-0.4,0.4-0.6V99.6
		L117.6,89.6z M74,113.1l-8.4-4.9L107.3,84l8.4,4.9L74,113.1z M64.1,107.4L22.2,83.1l41.9-24.3L106,83.1L64.1,107.4z M74,53
		l41.8,24.2l-8.4,4.9L65.6,57.9L74,53z M54.2,53l8.4,4.9L20.9,82.1l-8.4-4.9L54.2,53z M20.9,84.1l41.8,24.1l-8.4,4.9L12.5,89
		L20.9,84.1z M29.5,100.5l24.4,14.2c0.1,0.1,0.2,0.1,0.4,0.1c0.1,0,0.3,0,0.4-0.1l8.8-5.1v35.5l-34-19.7V100.5z M98.8,125.4
		L64.9,145v-35.5l8.8,5.1c0.1,0.1,0.2,0.1,0.4,0.1c0.1,0,0.3,0,0.4-0.1l24.4-14.2v25H98.8z"/>
	<path class="st0" d="M64.1,61.5c-0.4,0-0.7,0.3-0.7,0.7v1c0,0.4,0.3,0.7,0.7,0.7s0.7-0.3,0.7-0.7v-1C64.9,61.9,64.5,61.5,64.1,61.5
		z"/>
	<path class="st0" d="M64.1,74.4c-0.4,0-0.7,0.3-0.7,0.7v2c0,0.4,0.3,0.7,0.7,0.7s0.7-0.3,0.7-0.7v-2C64.9,74.8,64.5,74.4,64.1,74.4
		z"/>
	<path class="st0" d="M64.1,88.4c-0.4,0-0.7,0.3-0.7,0.7v2c0,0.4,0.3,0.7,0.7,0.7s0.7-0.3,0.7-0.7v-2C64.9,88.7,64.5,88.4,64.1,88.4
		z"/>
	<path class="st0" d="M64.1,67.5c-0.4,0-0.7,0.3-0.7,0.7v2c0,0.4,0.3,0.7,0.7,0.7s0.7-0.3,0.7-0.7v-2C64.9,67.8,64.5,67.5,64.1,67.5
		z"/>
	<path class="st0" d="M64.1,81.4c-0.4,0-0.7,0.3-0.7,0.7v2c0,0.4,0.3,0.7,0.7,0.7s0.7-0.3,0.7-0.7v-2C64.9,81.7,64.5,81.4,64.1,81.4
		z"/>
	<path class="st0" d="M64.1,95.3c-0.4,0-0.7,0.3-0.7,0.7v2c0,0.4,0.3,0.7,0.7,0.7s0.7-0.3,0.7-0.7v-2C64.9,95.7,64.5,95.3,64.1,95.3
		z"/>
	<path class="st0" d="M64.1,102.3c-0.4,0-0.7,0.3-0.7,0.7v1c0,0.4,0.3,0.7,0.7,0.7s0.7-0.3,0.7-0.7v-1
		C64.9,102.6,64.5,102.3,64.1,102.3z"/>
</g>
<g>
	<path class="st0" d="M62.2,85.5L51,74.3c-0.6-0.6-1.4-0.9-2.3-0.9c-0.9,0-1.7,0.3-2.3,0.9s-1,1.4-1,2.3s0.3,1.7,1,2.3l15.3,15.3
		c0.1,0.1,0.3,0.2,0.5,0.2s0.4-0.1,0.5-0.2L103,53.8c0.7-0.6,1-1.4,1-2.2s-0.3-1.7-0.9-2.3c-1.3-1.2-3.3-1.2-4.6,0L62.2,85.5z"/>
	<path class="st1" d="M102,52.8L83.3,71.5c-0.1,0-0.1,0.1-0.2,0.2L62.2,92.6L47.5,77.8C47.2,77.5,47,77,47,76.6
		c0-0.5,0.2-0.9,0.5-1.2c0.3-0.3,0.8-0.5,1.2-0.5c0.5,0,0.9,0.2,1.2,0.5l11.8,11.8c0.3,0.3,0.8,0.3,1,0l36.8-36.9
		c0.7-0.7,1.8-0.7,2.5,0c0.3,0.3,0.5,0.8,0.5,1.2C102.5,52,102.3,52.5,102,52.8z"/>
</g>
</svg>
