<?xml version="1.0" encoding="utf-8"?>
<!-- Generator: Adobe Illustrator 22.0.1, SVG Export Plug-In . SVG Version: 6.00 Build 0)  -->
<svg version="1.1" id="Capa_1" xmlns="http://www.w3.org/2000/svg" xmlns:xlink="http://www.w3.org/1999/xlink" x="0px" y="0px"
	 viewBox="0 0 128 160" style="enable-background:new 0 0 128 160;" xml:space="preserve">
<style type="text/css">
	.st0{fill:#666666;}
</style>
<g>
	<path class="st0" d="M9.8,70c-0.4,0-0.7,0.3-0.7,0.7v12.2c0,0.4,0.3,0.7,0.7,0.7s0.7-0.3,0.7-0.7V70.7C10.5,70.3,10.2,70,9.8,70z"
		/>
	<path class="st0" d="M9.8,86.2c-0.4,0-0.7,0.3-0.7,0.7v4c0,0.4,0.3,0.7,0.7,0.7s0.7-0.3,0.7-0.7v-4C10.5,86.5,10.2,86.2,9.8,86.2z"
		/>
	<path class="st0" d="M124.4,42.8c0.4,0,0.7-0.3,0.7-0.7V29.8c0-0.4-0.3-0.7-0.7-0.7c-0.4,0-0.7,0.3-0.7,0.7V42
		C123.7,42.5,124,42.8,124.4,42.8z"/>
	<path class="st0" d="M124.4,50.8c0.4,0,0.7-0.3,0.7-0.7v-4c0-0.4-0.3-0.7-0.7-0.7c-0.4,0-0.7,0.3-0.7,0.7v4
		C123.7,50.4,124,50.8,124.4,50.8z"/>
	<path class="st0" d="M112.3,12.7c0.1,0.1,0.3,0.2,0.5,0.2s0.4-0.1,0.5-0.2c0.3-0.3,0.3-0.8,0-1l-1.7-1.7c-0.3-0.3-0.8-0.3-1,0
		c-0.3,0.3-0.3,0.8,0,1L112.3,12.7z"/>
	<path class="st0" d="M117.7,18.1c0.1,0.1,0.3,0.2,0.5,0.2s0.4-0.1,0.5-0.2c0.3-0.3,0.3-0.8,0-1l-1.7-1.7c-0.3-0.3-0.8-0.3-1,0
		c-0.3,0.3-0.3,0.8,0,1L117.7,18.1z"/>
	<path class="st0" d="M111.2,18.3c0.2,0,0.4-0.1,0.5-0.2l1.7-1.7c0.3-0.3,0.3-0.8,0-1s-0.8-0.3-1,0l-1.7,1.7c-0.3,0.3-0.3,0.8,0,1
		C110.8,18.2,111,18.3,111.2,18.3z"/>
	<path class="st0" d="M116.6,12.9c0.2,0,0.4-0.1,0.5-0.2l1.7-1.7c0.3-0.3,0.3-0.8,0-1c-0.3-0.3-0.8-0.3-1,0l-1.7,1.7
		c-0.3,0.3-0.3,0.8,0,1C116.2,12.9,116.4,12.9,116.6,12.9z"/>
	<path class="st0" d="M78.4,116.2c-0.3-0.3-0.8-0.3-1,0s-0.3,0.8,0,1l1.7,1.7c0.1,0.1,0.3,0.2,0.5,0.2s0.4-0.1,0.5-0.2
		c0.3-0.3,0.3-0.8,0-1L78.4,116.2z"/>
	<path class="st0" d="M83.8,121.5c-0.3-0.3-0.8-0.3-1,0c-0.3,0.3-0.3,0.8,0,1l1.7,1.7c0.1,0.1,0.3,0.2,0.5,0.2s0.4-0.1,0.5-0.2
		c0.3-0.3,0.3-0.8,0-1L83.8,121.5z"/>
	<path class="st0" d="M79,121.5l-1.7,1.7c-0.3,0.3-0.3,0.8,0,1c0.1,0.1,0.3,0.2,0.5,0.2s0.4-0.1,0.5-0.2l1.7-1.7
		c0.3-0.3,0.3-0.8,0-1C79.8,121.2,79.3,121.2,79,121.5z"/>
	<path class="st0" d="M84.4,116.2l-1.7,1.7c-0.3,0.3-0.3,0.8,0,1c0.1,0.1,0.3,0.2,0.5,0.2s0.4-0.1,0.5-0.2l1.7-1.7
		c0.3-0.3,0.3-0.8,0-1S84.7,115.9,84.4,116.2z"/>
	<path class="st0" d="M1.8,109c-0.3-0.3-0.8-0.3-1,0c-0.3,0.3-0.3,0.8,0,1l1.7,1.7c0.1,0.1,0.3,0.2,0.5,0.2s0.4-0.1,0.5-0.2
		c0.3-0.3,0.3-0.8,0-1L1.8,109z"/>
	<path class="st0" d="M7.1,114.4c-0.3-0.3-0.8-0.3-1,0s-0.3,0.8,0,1l1.7,1.7c0.1,0.1,0.3,0.2,0.5,0.2s0.4-0.1,0.5-0.2
		c0.3-0.3,0.3-0.8,0-1L7.1,114.4z"/>
	<path class="st0" d="M2.4,114.4l-1.7,1.7c-0.3,0.3-0.3,0.8,0,1c0.1,0.1,0.3,0.2,0.5,0.2s0.4-0.1,0.5-0.2l1.7-1.7
		c0.3-0.3,0.3-0.8,0-1C3.1,114.1,2.7,114.1,2.4,114.4z"/>
	<path class="st0" d="M7.7,109L6,110.7c-0.3,0.3-0.3,0.8,0,1c0.1,0.1,0.3,0.2,0.5,0.2s0.4-0.1,0.5-0.2l1.7-1.7c0.3-0.3,0.3-0.8,0-1
		C8.5,108.7,8,108.7,7.7,109z"/>
	<path class="st0" d="M74.7,11.3c2.1,0,3.9-1.7,3.9-3.9c0-2.1-1.7-3.9-3.9-3.9s-3.9,1.7-3.9,3.9C70.9,9.6,72.6,11.3,74.7,11.3z
		 M74.7,5c1.3,0,2.4,1.1,2.4,2.4S76,9.8,74.7,9.8s-2.4-1.1-2.4-2.4C72.3,6.1,73.4,5,74.7,5z"/>
	<path class="st0" d="M113.4,89.6c0,2.1,1.7,3.9,3.9,3.9c2.1,0,3.9-1.7,3.9-3.9s-1.7-3.9-3.9-3.9C115.2,85.8,113.4,87.5,113.4,89.6z
		 M119.7,89.6c0,1.3-1.1,2.4-2.4,2.4s-2.4-1.1-2.4-2.4s1.1-2.4,2.4-2.4S119.7,88.3,119.7,89.6z"/>
	<path class="st0" d="M31.8,107.9c-2.1,0-3.9,1.7-3.9,3.9c0,2.1,1.7,3.9,3.9,3.9c2.1,0,3.9-1.7,3.9-3.9S34,107.9,31.8,107.9z
		 M31.8,114.1c-1.3,0-2.4-1.1-2.4-2.4s1.1-2.4,2.4-2.4s2.4,1.1,2.4,2.4C34.2,113.1,33.2,114.1,31.8,114.1z"/>
	<path class="st0" d="M14.2,9.8h14.5c0.4,0,0.7-0.3,0.7-0.7s-0.3-0.7-0.7-0.7H14.2c-0.4,0-0.7,0.3-0.7,0.7S13.8,9.8,14.2,9.8z"/>
	<path class="st0" d="M4.7,9.8h4.7c0.4,0,0.7-0.3,0.7-0.7S9.8,8.4,9.4,8.4H4.7C4.3,8.3,4,8.7,4,9.1C4,9.5,4.3,9.8,4.7,9.8z"/>
	<path class="st0" d="M15.6,14.1c0-0.4-0.3-0.7-0.7-0.7H4.7c-0.4,0-0.7,0.3-0.7,0.7s0.3,0.7,0.7,0.7h10.1
		C15.3,14.8,15.6,14.5,15.6,14.1z"/>
	<path class="st0" d="M19.2,13.3c-0.4,0-0.7,0.3-0.7,0.7s0.3,0.7,0.7,0.7h3.3c0.4,0,0.7-0.3,0.7-0.7s-0.3-0.7-0.7-0.7H19.2z"/>
	<path class="st0" d="M117.3,114.8h-14.5c-0.4,0-0.7,0.3-0.7,0.7c0,0.4,0.3,0.7,0.7,0.7h14.5c0.4,0,0.7-0.3,0.7-0.7
		C118,115.1,117.7,114.8,117.3,114.8z"/>
	<path class="st0" d="M126.8,114.8h-4.7c-0.4,0-0.7,0.3-0.7,0.7c0,0.4,0.3,0.7,0.7,0.7h4.7c0.4,0,0.7-0.3,0.7-0.7
		C127.5,115.1,127.2,114.8,126.8,114.8z"/>
	<path class="st0" d="M115.9,110.6c0,0.4,0.3,0.7,0.7,0.7h10.1c0.4,0,0.7-0.3,0.7-0.7c0-0.4-0.3-0.7-0.7-0.7h-10.1
		C116.2,109.8,115.9,110.2,115.9,110.6z"/>
	<path class="st0" d="M109,109.8c-0.4,0-0.7,0.3-0.7,0.7c0,0.4,0.3,0.7,0.7,0.7h3.3c0.4,0,0.7-0.3,0.7-0.7c0-0.4-0.3-0.7-0.7-0.7
		H109z"/>
	<path class="st0" d="M117.6,56.4c0.2-0.1,0.4-0.4,0.4-0.6c0-0.3-0.1-0.5-0.4-0.6l-9-5.2l9-5.2c0.2-0.1,0.4-0.4,0.4-0.6
		c0-0.3-0.1-0.5-0.4-0.6l-43.2-25c-0.2-0.1-0.5-0.1-0.7,0l-9.5,5.5l-9.5-5.5c-0.2-0.1-0.5-0.1-0.7,0l-43.2,25
		c-0.2,0.1-0.4,0.4-0.4,0.6c0,0.3,0.1,0.5,0.4,0.6l9,5.2l-9,5.2c-0.2,0.1-0.4,0.4-0.4,0.6c0,0.3,0.1,0.5,0.4,0.6l17.3,10v26.2
		c0,0.3,0.1,0.5,0.4,0.6l35.4,20.5l0,0c0.1,0.1,0.2,0.1,0.3,0.1s0.2,0,0.3-0.1l0,0l35.4-20.5c0.2-0.1,0.4-0.4,0.4-0.6V66.4
		L117.6,56.4z M74,79.9L65.6,75l41.7-24.2l8.4,4.9L74,79.9z M64.1,74.2L22.2,49.9l41.9-24.3L106,49.9L64.1,74.2z M74,19.8L115.8,44
		l-8.4,4.9L65.6,24.7L74,19.8z M54.2,19.8l8.4,4.9L20.9,48.9L12.5,44L54.2,19.8z M20.9,50.9L62.7,75l-8.4,4.9L12.5,55.8L20.9,50.9z
		 M29.5,67.3l24.4,14.2c0.1,0.1,0.2,0.1,0.4,0.1c0.1,0,0.3,0,0.4-0.1l8.8-5.1v35.5l-34-19.7V67.3z M98.8,92.2l-33.9,19.6V76.3
		l8.8,5.1c0.1,0.1,0.2,0.1,0.4,0.1c0.1,0,0.3,0,0.4-0.1l24.4-14.2v25H98.8z"/>
	<path class="st0" d="M64.1,28.3c-0.4,0-0.7,0.3-0.7,0.7v1c0,0.4,0.3,0.7,0.7,0.7s0.7-0.3,0.7-0.7v-1C64.9,28.7,64.5,28.3,64.1,28.3
		z"/>
	<path class="st0" d="M64.1,41.2c-0.4,0-0.7,0.3-0.7,0.7v2c0,0.4,0.3,0.7,0.7,0.7s0.7-0.3,0.7-0.7v-2C64.9,41.6,64.5,41.2,64.1,41.2
		z"/>
	<path class="st0" d="M64.1,55.2c-0.4,0-0.7,0.3-0.7,0.7v2c0,0.4,0.3,0.7,0.7,0.7s0.7-0.3,0.7-0.7v-2C64.9,55.5,64.5,55.2,64.1,55.2
		z"/>
	<path class="st0" d="M64.1,34.3c-0.4,0-0.7,0.3-0.7,0.7v2c0,0.4,0.3,0.7,0.7,0.7s0.7-0.3,0.7-0.7v-2C64.9,34.6,64.5,34.3,64.1,34.3
		z"/>
	<path class="st0" d="M64.1,48.2c-0.4,0-0.7,0.3-0.7,0.7v2c0,0.4,0.3,0.7,0.7,0.7s0.7-0.3,0.7-0.7v-2C64.9,48.5,64.5,48.2,64.1,48.2
		z"/>
	<path class="st0" d="M64.1,62.1c-0.4,0-0.7,0.3-0.7,0.7v2c0,0.4,0.3,0.7,0.7,0.7s0.7-0.3,0.7-0.7v-2C64.9,62.5,64.5,62.1,64.1,62.1
		z"/>
	<path class="st0" d="M64.1,69.1c-0.4,0-0.7,0.3-0.7,0.7v1c0,0.4,0.3,0.7,0.7,0.7s0.7-0.3,0.7-0.7v-1C64.9,69.4,64.5,69.1,64.1,69.1
		z"/>
</g>
</svg>
